<?xml version="1.0" standalone="no"?>
<!DOCTYPE svg PUBLIC "-//W3C//DTD SVG 20010904//EN"
 "http://www.w3.org/TR/2001/REC-SVG-20010904/DTD/svg10.dtd">
<svg version="1.0" xmlns="http://www.w3.org/2000/svg"
 width="400.000000pt" height="400.000000pt" viewBox="0 0 400.000000 400.000000"
 preserveAspectRatio="xMidYMid meet">
<metadata>
Created by potrace 1.14, written by Peter Selinger 2001-2017
</metadata>
<g transform="translate(0.000000,400.000000) scale(0.100000,-0.100000)"
fill="#000000" stroke="none">
<path d="M0 2000 l0 -2000 2000 0 2000 0 0 2000 0 2000 -2000 0 -2000 0 0
-2000z m2254 1185 c149 -73 236 -121 236 -130 0 -23 -24 -18 -99 19 l-68 35
-26 -65 c-15 -35 -27 -69 -27 -75 0 -5 35 -26 77 -47 77 -37 103 -62 65 -62
-11 0 -49 13 -84 30 -34 16 -67 30 -73 30 -5 0 -23 -35 -40 -77 -20 -51 -36
-79 -47 -81 -25 -5 -23 13 12 93 36 86 36 89 5 103 -23 11 -26 9 -36 -16 -24
-68 -32 -82 -45 -82 -21 0 -18 17 24 131 26 68 45 105 55 107 20 4 21 -13 5
-58 -10 -29 -9 -35 8 -47 10 -7 22 -12 27 -10 5 1 22 34 38 72 l27 70 -140 68
c-77 37 -144 67 -149 67 -8 0 -268 -127 -278 -136 -4 -4 50 -144 56 -144 4 0
45 20 51 25 2 2 -4 20 -12 40 -20 48 -20 55 3 55 14 0 27 -23 57 -107 43 -120
44 -125 26 -131 -7 -2 -21 16 -34 47 -21 53 -33 60 -61 39 -15 -12 -14 -18 12
-78 44 -99 46 -110 23 -110 -15 0 -27 18 -52 80 -18 44 -36 80 -40 80 -4 0
-37 -13 -73 -30 -73 -33 -97 -37 -97 -16 0 7 36 30 81 50 65 30 79 40 74 54
-4 9 -16 41 -27 70 -12 28 -27 52 -35 52 -7 0 -40 -13 -73 -30 -65 -33 -90
-37 -90 -17 0 14 462 246 491 247 9 0 123 -52 253 -115z m-768 10 c11 -31 14
-49 7 -56 -7 -7 -13 -6 -20 3 -17 21 -42 86 -35 92 15 16 32 2 48 -39z m1084
33 c-1 -22 -39 -98 -49 -98 -21 0 -22 23 -2 65 19 42 51 62 51 33z m-1294
-340 c43 -30 57 -58 31 -58 -15 0 -97 58 -97 69 0 8 11 21 18 21 2 0 24 -14
48 -32z m1514 9 c0 -13 -72 -67 -89 -67 -27 0 -17 22 25 54 45 34 64 38 64 13z
m-1570 -87 c33 -29 42 -42 34 -50 -9 -9 -23 -3 -58 21 -44 31 -54 48 -39 62
10 11 16 8 63 -33z m1637 23 c5 -14 -86 -85 -98 -77 -18 11 -7 30 34 61 42 32
58 36 64 16z m-1487 -39 c0 -8 -7 -14 -15 -14 -15 0 -21 21 -9 33 10 9 24 -2
24 -19z m1296 15 c10 -17 -13 -36 -27 -22 -12 12 -4 33 11 33 5 0 12 -5 16
-11z m-718 -11 c-3 -7 -11 -13 -18 -13 -7 0 -15 6 -17 13 -3 7 4 12 17 12 13
0 20 -5 18 -12z m142 -3 c0 -8 -7 -15 -15 -15 -8 0 -15 7 -15 15 0 8 7 15 15
15 8 0 15 -7 15 -15z m-670 -40 c0 -8 -7 -15 -15 -15 -8 0 -15 7 -15 15 0 8 7
15 15 15 8 0 15 -7 15 -15z m1193 0 c1 -5 -6 -11 -15 -13 -11 -2 -18 3 -18 13
0 17 30 18 33 0z m-1310 -30 c1 -5 -6 -11 -15 -13 -11 -2 -18 3 -18 13 0 17
30 18 33 0z m1427 0 c0 -8 -7 -15 -15 -15 -8 0 -15 7 -15 15 0 8 7 15 15 15 8
0 15 -7 15 -15z m-1512 -122 c-2 -88 -6 -108 -18 -108 -12 0 -15 17 -15 90 1
93 7 125 25 125 7 0 10 -36 8 -107z m1603 6 c6 -100 3 -122 -15 -116 -13 4
-32 177 -22 202 3 9 12 15 19 13 8 -3 14 -37 18 -99z m-1463 74 c-4 -22 -22
-20 -26 1 -2 10 3 16 13 16 10 0 15 -7 13 -17z m1320 -1 c2 -7 -6 -12 -17 -12
-21 0 -27 11 -14 24 9 9 26 2 31 -12z m-918 -67 c0 -8 -7 -15 -15 -15 -8 0
-15 7 -15 15 0 8 7 15 15 15 8 0 15 -7 15 -15z m515 4 c10 -15 -1 -23 -20 -15
-9 3 -13 10 -10 16 8 13 22 13 30 -1z m-1187 -165 c-3 -136 -5 -149 -22 -152
-18 -4 -18 4 -14 145 2 81 8 154 12 162 19 31 26 -15 24 -155z m602 153 c0 -7
-35 -29 -77 -47 -43 -19 -112 -49 -153 -68 -41 -19 -111 -50 -155 -69 -44 -19
-83 -37 -87 -41 -4 -4 -8 -79 -9 -166 0 -88 -3 -165 -6 -172 -8 -23 -123 -106
-138 -100 -21 8 -10 27 28 53 79 54 77 49 77 207 0 203 -2 198 84 236 39 18
94 43 121 56 28 12 100 45 160 72 112 52 155 62 155 39z m887 -88 c125 -55
233 -106 240 -112 8 -8 15 -71 19 -184 l7 -173 54 -41 c51 -40 68 -69 39 -69
-7 0 -41 21 -75 47 l-61 47 0 87 c0 47 -3 126 -6 175 l-7 89 -66 29 c-243 105
-401 181 -401 192 0 8 6 14 14 14 8 0 117 -45 243 -101z m373 2 c0 -48 3 -116
6 -149 6 -52 4 -63 -10 -68 -9 -4 -18 -5 -20 -3 -2 2 -7 73 -11 157 -7 150 -7
152 14 152 20 0 21 -5 21 -89z m-1131 -8 c5 -21 22 -101 36 -178 15 -77 29
-147 32 -155 3 -9 23 21 49 73 l45 89 -26 43 c-30 52 -31 65 -7 65 11 0 25
-15 36 -37 l18 -38 19 37 c23 45 37 55 46 32 4 -10 -4 -36 -17 -62 l-24 -44
44 -87 44 -86 12 55 c6 30 24 117 39 193 19 91 32 137 41 137 7 0 15 -3 17 -7
3 -5 -8 -73 -23 -153 -16 -80 -25 -148 -22 -151 10 -10 329 -242 480 -348 72
-52 132 -100 132 -107 0 -18 -118 -117 -130 -109 -19 12 -9 30 35 65 24 19 44
37 44 40 0 3 -30 27 -67 53 l-67 48 -23 -27 -23 -27 33 -27 c25 -22 30 -31 21
-40 -9 -10 -18 -7 -43 10 l-31 22 -26 -23 c-40 -39 -42 -49 -22 -153 13 -68
16 -103 9 -110 -18 -18 -28 6 -48 114 -22 114 -23 106 30 172 l22 28 -40 34
c-33 29 -36 35 -22 41 11 4 29 -3 51 -19 l34 -26 24 26 24 26 -21 16 c-12 10
-66 49 -120 87 -53 39 -136 98 -183 133 l-86 63 -11 -43 c-11 -41 -9 -47 32
-124 24 -45 44 -87 44 -95 0 -8 -26 -43 -57 -78 l-58 -63 -58 22 -59 22 -50
-21 c-28 -11 -56 -17 -62 -13 -17 10 -116 120 -116 129 0 3 20 44 45 90 39 73
44 88 39 123 -4 22 -9 42 -13 44 -3 2 -40 -21 -82 -52 -41 -32 -120 -88 -174
-127 -156 -111 -152 -107 -132 -139 l18 -26 37 25 c66 45 90 19 27 -29 l-35
-27 37 -45 36 -45 -17 -97 c-23 -126 -25 -132 -41 -132 -22 0 -22 18 -2 120
l20 98 -28 36 c-32 42 -38 43 -72 16 -14 -11 -30 -20 -34 -20 -18 0 -8 33 16
52 30 23 30 26 5 56 l-20 24 -65 -47 c-36 -25 -65 -50 -65 -54 0 -5 21 -27 48
-49 35 -31 44 -43 36 -52 -16 -16 -38 -3 -98 58 l-49 50 80 59 c43 32 148 108
232 168 262 187 311 225 311 238 0 7 -11 68 -25 137 -13 69 -25 133 -25 143 0
33 29 18 39 -20z m106 -1 c0 -18 -20 -15 -23 4 -3 10 1 15 10 12 7 -3 13 -10
13 -16z m180 0 c0 -18 -20 -15 -23 4 -3 10 1 15 10 12 7 -3 13 -10 13 -16z
m-1145 -22 c0 -17 -7 -20 -48 -20 -27 0 -52 3 -55 7 -15 14 18 33 59 33 37 0
44 -3 44 -20z m2188 -2 c3 -15 -4 -18 -47 -18 -27 0 -53 5 -56 10 -12 20 8 31
53 28 35 -2 48 -7 50 -20z m-2068 -253 c0 -8 -7 -15 -15 -15 -8 0 -15 7 -15
15 0 8 7 15 15 15 8 0 15 -7 15 -15z m1875 4 c10 -15 -1 -23 -20 -15 -9 3 -13
10 -10 16 8 13 22 13 30 -1z m-1670 -199 c3 -6 -1 -13 -10 -16 -19 -8 -30 0
-20 15 8 14 22 14 30 1z m73 -7 c-5 -25 -28 -28 -28 -4 0 12 6 21 16 21 9 0
14 -7 12 -17z m75 2 c1 -5 -6 -11 -15 -13 -11 -2 -18 3 -18 13 0 17 30 18 33
0z m1167 0 c0 -8 -7 -15 -15 -15 -8 0 -15 7 -15 15 0 8 7 15 15 15 8 0 15 -7
15 -15z m76 4 c10 -17 -13 -36 -27 -22 -12 12 -4 33 11 33 5 0 12 -5 16 -11z
m74 -4 c0 -8 -7 -15 -15 -15 -8 0 -15 7 -15 15 0 8 7 15 15 15 8 0 15 -7 15
-15z m-1027 -142 c74 -80 82 -92 68 -106 -9 -9 -27 5 -76 58 -59 65 -80 105
-54 105 6 0 34 -25 62 -57z m632 39 c0 -17 -125 -153 -136 -147 -18 12 -8 31
52 98 56 62 84 78 84 49z m-1115 -14 c-1 -17 -88 -80 -100 -73 -19 11 -9 30
28 57 40 29 72 36 72 16z m1598 -19 c43 -31 50 -43 32 -54 -14 -8 -100 52
-100 70 0 23 22 18 68 -16z m-1828 -5 c0 -8 -7 -14 -15 -14 -15 0 -21 21 -9
33 10 9 24 -2 24 -19z m2016 15 c10 -17 -13 -36 -27 -22 -12 12 -4 33 11 33 5
0 12 -5 16 -11z m-1938 -106 c-4 -22 -22 -20 -26 1 -2 10 3 16 13 16 10 0 15
-7 13 -17z m1860 -1 c2 -7 -6 -12 -17 -12 -21 0 -27 11 -14 24 9 9 26 2 31
-12z m-1230 -20 c2 -7 -3 -12 -12 -12 -9 0 -16 7 -16 16 0 17 22 14 28 -4z
m602 3 c0 -8 -6 -15 -14 -15 -17 0 -28 14 -19 24 12 12 33 6 33 -9z m-680 -20
c0 -8 -7 -15 -15 -15 -8 0 -15 7 -15 15 0 8 7 15 15 15 8 0 15 -7 15 -15z
m755 4 c10 -15 -1 -23 -20 -15 -9 3 -13 10 -10 16 8 13 22 13 30 -1z m-1377
-17 c2 -7 -6 -12 -17 -12 -21 0 -27 11 -14 24 9 9 26 2 31 -12z m2002 3 c0 -8
-7 -15 -15 -15 -8 0 -15 7 -15 15 0 8 7 15 15 15 8 0 15 -7 15 -15z m-1610
-111 c0 -8 -7 -14 -15 -14 -15 0 -21 21 -9 33 10 9 24 -2 24 -19z m1212 -6
c-9 -9 -15 -9 -24 0 -10 10 -10 15 2 22 20 12 38 -6 22 -22z m-677 12 c6 -10
-46 -86 -70 -102 -5 -4 -22 5 -37 19 l-28 26 -35 -77 c-19 -42 -35 -79 -35
-82 0 -2 117 -4 260 -4 149 0 260 4 260 9 0 10 -58 143 -66 150 -2 3 -11 -5
-20 -17 -8 -12 -23 -22 -34 -22 -19 0 -80 74 -80 97 0 23 24 14 52 -19 l27
-33 30 29 c19 19 35 26 40 20 16 -15 101 -215 101 -235 0 -18 -10 -19 -139
-19 l-139 0 -8 -82 c-7 -63 -13 -83 -24 -83 -12 0 -16 17 -18 83 l-3 82 -139
0 c-87 0 -141 4 -145 11 -8 11 79 215 101 238 11 12 17 10 42 -17 l30 -32 23
35 c24 35 43 44 54 25z m-475 -45 c0 -8 -6 -15 -14 -15 -17 0 -28 14 -19 24
12 12 33 6 33 -9z m1100 0 c0 -8 -7 -15 -15 -15 -8 0 -15 7 -15 15 0 8 7 15
15 15 8 0 15 -7 15 -15z m-855 -5 c3 -5 -11 -48 -31 -95 -27 -62 -42 -85 -56
-85 -25 0 -23 8 21 105 38 81 52 97 66 75z m639 -70 c39 -86 44 -110 21 -110
-15 0 -72 113 -82 162 -4 21 -2 28 9 28 9 0 30 -32 52 -80z m-1024 57 c0 -14
-94 -92 -112 -92 -28 0 -15 26 33 64 52 42 79 51 79 28z m1422 -24 c43 -35 63
-73 37 -73 -17 0 -109 82 -109 97 0 22 23 15 72 -24z m-1133 5 c0 -42 -55
-173 -72 -176 -9 -2 -17 2 -17 8 0 17 52 163 63 178 15 19 27 14 26 -10z m827
-74 c32 -90 34 -104 10 -104 -16 0 -80 176 -70 191 13 22 30 -2 60 -87z m-566
1 c0 -8 -6 -15 -14 -15 -17 0 -28 14 -19 24 12 12 33 6 33 -9z m280 0 c0 -8
-7 -15 -15 -15 -8 0 -15 7 -15 15 0 8 7 15 15 15 8 0 15 -7 15 -15z m-654 -36
c10 -17 -13 -36 -27 -22 -12 12 -4 33 11 33 5 0 12 -5 16 -11z m1020 0 c10
-17 -13 -36 -27 -22 -12 12 -4 33 11 33 5 0 12 -5 16 -11z m-1202 -7 c6 -10
-68 -210 -84 -226 -6 -6 -13 -7 -20 0 -8 8 41 160 71 216 10 19 25 23 33 10z
m1425 -97 c45 -116 49 -138 25 -133 -10 2 -30 41 -55 107 -43 114 -46 131 -25
131 9 0 30 -40 55 -105z m-1263 44 c8 -14 -11 -33 -25 -25 -11 7 -4 36 9 36 5
0 12 -5 16 -11z m1059 -9 c0 -7 -6 -15 -12 -17 -8 -3 -13 4 -13 17 0 13 5 20
13 18 6 -3 12 -11 12 -18z m-869 -93 c38 -79 41 -97 19 -97 -20 0 -90 143 -81
166 9 25 25 7 62 -69z m719 73 c9 -15 -65 -170 -81 -170 -25 0 -22 16 16 98
37 79 51 94 65 72z m-645 -20 c0 -11 -7 -20 -15 -20 -15 0 -21 21 -8 33 12 13
23 7 23 -13z m124 -32 c3 -29 6 -62 6 -73 0 -12 -45 -81 -100 -155 -55 -74
-99 -142 -96 -150 2 -8 7 -23 11 -32 10 -25 -22 -36 -38 -14 -11 15 -15 14
-36 -14 -12 -17 -21 -33 -19 -34 1 -2 92 -60 202 -130 l198 -126 57 35 c191
120 336 215 339 223 1 5 -7 21 -19 36 -19 24 -23 26 -31 12 -22 -40 -50 -7
-28 33 10 19 13 14 -125 202 l-70 96 5 69 c4 57 8 69 24 72 17 4 18 -2 15 -65
l-4 -68 65 -89 c36 -49 77 -104 92 -123 l27 -35 24 54 c109 243 141 308 153
308 18 0 18 -34 -1 -71 l-16 -29 54 -24 c30 -13 58 -29 61 -35 14 -22 -23 -22
-74 0 -51 22 -53 22 -66 4 -23 -31 -17 -40 41 -64 59 -24 73 -37 58 -52 -6 -6
-32 0 -68 16 -32 14 -61 22 -65 18 -4 -4 -22 -41 -40 -81 -35 -77 -35 -83 9
-140 l17 -24 38 23 c29 17 40 19 49 10 9 -9 7 -16 -10 -29 -48 -36 -501 -322
-510 -322 -9 0 -152 90 -440 276 -46 30 -83 60 -83 69 0 20 12 19 53 -5 l35
-21 32 41 32 41 -38 84 c-21 47 -42 85 -46 85 -5 0 -25 -8 -46 -19 -64 -32
-82 -35 -82 -13 0 15 15 26 55 43 54 22 61 31 49 63 -8 21 -27 20 -74 -4 -45
-23 -70 -26 -70 -7 0 8 23 24 51 37 28 13 52 27 55 31 2 4 -3 24 -12 44 -11
28 -12 40 -4 49 17 16 28 -3 111 -190 l74 -165 19 23 c10 13 52 69 93 126 l76
103 -6 59 c-3 32 -2 61 1 64 17 18 30 1 36 -46z m412 41 c10 -17 -13 -36 -27
-22 -12 12 -4 33 11 33 5 0 12 -5 16 -11z m-689 -61 c24 -54 26 -97 3 -83 -17
11 -61 117 -55 133 9 24 25 8 52 -50z m865 50 c6 -17 -48 -138 -61 -138 -23 0
-21 25 8 85 29 63 44 78 53 53z m-692 -52 c0 -8 -4 -17 -9 -21 -12 -7 -24 12
-16 25 9 15 25 12 25 -4z m496 3 c8 -14 -18 -31 -30 -19 -9 9 0 30 14 30 5 0
12 -5 16 -11z m-320 -50 c3 -6 2 -15 -2 -19 -12 -12 -38 5 -30 19 9 14 23 14
32 0z m142 -6 c-4 -22 -22 -20 -26 1 -2 10 3 16 13 16 10 0 15 -7 13 -17z
m-298 -18 c0 -8 -6 -15 -14 -15 -17 0 -28 14 -19 24 12 12 33 6 33 -9z m460 0
c0 -8 -7 -15 -15 -15 -8 0 -15 7 -15 15 0 8 7 15 15 15 8 0 15 -7 15 -15z
m-1030 -71 c0 -8 -7 -14 -15 -14 -15 0 -21 21 -9 33 10 9 24 -2 24 -19z m1600
0 c0 -8 -7 -14 -15 -14 -15 0 -21 21 -9 33 10 9 24 -2 24 -19z m-1370 -219 c0
-8 -7 -15 -15 -15 -8 0 -15 7 -15 15 0 8 7 15 15 15 8 0 15 -7 15 -15z m1130
0 c0 -8 -7 -15 -15 -15 -8 0 -15 7 -15 15 0 8 7 15 15 15 8 0 15 -7 15 -15z
m-860 -101 c0 -8 -7 -14 -15 -14 -15 0 -21 21 -9 33 10 9 24 -2 24 -19z m600
0 c0 -14 -21 -19 -33 -7 -9 9 13 34 24 27 5 -3 9 -12 9 -20z m-780 -89 c0 -8
-6 -15 -14 -15 -17 0 -28 14 -19 24 12 12 33 6 33 -9z m960 0 c0 -8 -6 -15
-14 -15 -17 0 -28 14 -19 24 12 12 33 6 33 -9z m-808 -99 c84 -57 119 -96 88
-96 -13 0 -192 118 -202 134 -8 12 -1 26 12 26 5 0 51 -29 102 -64z m733 43
c0 -16 -184 -141 -200 -136 -25 8 -3 31 85 91 94 64 115 72 115 45z m-557
-171 c-3 -7 -11 -13 -18 -13 -7 0 -15 6 -17 13 -3 7 4 12 17 12 13 0 20 -5 18
-12z m302 -3 c0 -8 -7 -15 -15 -15 -8 0 -15 7 -15 15 0 8 7 15 15 15 8 0 15
-7 15 -15z"/>
<path d="M1983 2258 c-34 -57 -163 -306 -163 -315 0 -4 18 -28 39 -53 l39 -45
51 18 c49 17 54 17 106 1 30 -10 56 -16 57 -13 2 2 20 23 41 45 l39 42 -83
158 c-111 213 -102 203 -126 162z"/>
</g>
</svg>
